# xmcd
#
# Track frame offsets: 
#        150
#        9428
#        20475
#        33280
#        45285
#        56830
#        66257
#        80879
#        94136
#        106867
#        118162
#        129131
#        138630
#        146960
#        159250
#        169222
#        180995
#        190522
#        201981
#        210817
#
# Disc length: 2949 seconds
#
# Revision: 0
# Processed by: cddbd v1.5.2PL0 Copyright (c) Steve Scherf et al.
# Submitted via: ExactAudioCopyFreeDBPlugin 1.0
#
DISCID=0e0b8314
DTITLE=Winifred Atwell - Let's Have a Party
DYEAR=2005
DGENRE=Blues
TTITLE0=Black and White Rag
TTITLE1=Serenata
TTITLE2=Let's Have Another Party 1
TTITLE3=Let's Have Another Party 2
TTITLE4=Charleston
TTITLE5=Boogamba
TTITLE6=The Story of Three Loves
TTITLE7=Moonlight Fiesta
TTITLE8=Asia Minor
TTITLE9=Dill Pickles Rag
TTITLE10=Vendetta
TTITLE11=Bounce the Boogie
TTITLE12=Gold and Silver Waltz
TTITLE13=Choo Choo Samba
TTITLE14=El Cumbanchero
TTITLE15=Swanee River Boogie
TTITLE16=Caravan
TTITLE17=Jubilee Rag
TTITLE18=Dinah
TTITLE19=Crazy Words, Crazy Tune
EXTD=
EXTT0=
EXTT1=
EXTT2=
EXTT3=
EXTT4=
EXTT5=
EXTT6=
EXTT7=
EXTT8=
EXTT9=
EXTT10=
EXTT11=
EXTT12=
EXTT13=
EXTT14=
EXTT15=
EXTT16=
EXTT17=
EXTT18=
EXTT19=
PLAYORDER=
